HIERARCHY
ROOT joint_0
{
	OFFSET 0.000000 0.000000 0.000000
	CHANNELS 6 Xposition Yposition Zposition Zrotation Yrotation Xrotation 
	JOINT joint_1
	{
		OFFSET 6.004005 -1.946999 100.587036
		CHANNELS 3 Zrotation Yrotation Xrotation
		JOINT joint_2
		{
			OFFSET -4.601006 -0.824997 91.925903
			CHANNELS 3 Zrotation Yrotation Xrotation
			JOINT joint_3
			{
				OFFSET -5.420998 -1.130005 91.774048
				CHANNELS 3 Zrotation Yrotation Xrotation
				JOINT joint_4
				{
					OFFSET 4.308998 -3.777992 123.473999
					CHANNELS 3 Zrotation Yrotation Xrotation
					JOINT joint_5
					{
						OFFSET 25.565002 -6.305008 79.437988
						CHANNELS 3 Zrotation Yrotation Xrotation
						End Site
						{
							OFFSET 0.000000 0.000000 0.000000
						}
					}
				}
				JOINT joint_6
				{
					OFFSET -1.750000 -28.655998 68.557983
					CHANNELS 3 Zrotation Yrotation Xrotation
					JOINT joint_7
					{
						OFFSET -17.692001 -116.544006 -17.244019
						CHANNELS 3 Zrotation Yrotation Xrotation
						JOINT joint_8
						{
							OFFSET 27.063004 -23.640991 -266.895020
							CHANNELS 3 Zrotation Yrotation Xrotation
							JOINT joint_9
							{
								OFFSET 40.722000 -15.761017 -232.488953
								CHANNELS 3 Zrotation Yrotation Xrotation
								End Site
								{
									OFFSET 0.000000 0.000000 0.000000
								}
							}
						}
					}
				}
				JOINT joint_10
				{
					OFFSET 6.593002 24.457001 69.892944
					CHANNELS 3 Zrotation Yrotation Xrotation
					JOINT joint_11
					{
						OFFSET 24.311996 114.920002 -19.872925
						CHANNELS 3 Zrotation Yrotation Xrotation
						JOINT joint_12
						{
							OFFSET 21.081001 15.319000 -268.037964
							CHANNELS 3 Zrotation Yrotation Xrotation
							JOINT joint_13
							{
								OFFSET 27.794006 -8.947001 -234.744080
								CHANNELS 3 Zrotation Yrotation Xrotation
								End Site
								{
									OFFSET 0.000000 0.000000 0.000000
								}
							}
						}
					}
				}
			}
		}
	}
	JOINT joint_14
	{
		OFFSET -6.627998 -80.520004 -98.790039
		CHANNELS 3 Zrotation Yrotation Xrotation
		JOINT joint_15
		{
			OFFSET -43.638000 -13.751999 -502.538971
			CHANNELS 3 Zrotation Yrotation Xrotation
			JOINT joint_16
			{
				OFFSET -39.532999 -9.912994 -398.071007
				CHANNELS 3 Zrotation Yrotation Xrotation
				JOINT joint_17
				{
					OFFSET 174.940004 -34.660995 -75.688002
					CHANNELS 3 Zrotation Yrotation Xrotation
					End Site
					{
						OFFSET 0.000000 0.000000 0.000000
					}
				}
			}
		}
	}
	JOINT joint_18
	{
		OFFSET 12.591003 79.842003 -98.765015
		CHANNELS 3 Zrotation Yrotation Xrotation
		JOINT joint_19
		{
			OFFSET -39.080002 -1.297001 -503.101013
			CHANNELS 3 Zrotation Yrotation Xrotation
			JOINT joint_20
			{
				OFFSET -51.570000 -0.514000 -396.815987
				CHANNELS 3 Zrotation Yrotation Xrotation
				JOINT joint_21
				{
					OFFSET 178.987999 -11.521999 -73.244003
					CHANNELS 3 Zrotation Yrotation Xrotation
					End Site
					{
						OFFSET 0.000000 0.000000 0.000000
					}
				}
			}
		}
	}
}
MOTION
Frames: 6
Frame Time: 0.016667
229.450000 -162.727010 1107.312010 -3.125812 6.405621 -0.896156 0.993611 -1.549870 -1.387296 0.940191 0.256449 0.331920 0.876960 -0.431571 -0.307376 -0.249344 1.659171 1.180095 0.000000 0.000000 0.000000 2.869558 0.963624 -2.357690 -2.104495 1.867585 -4.134991 0.902278 -30.501040 -2.303751 0.000000 0.000000 0.000000 1.110008 5.388183 7.304511 1.028110 7.056885 -0.043655 0.346356 -12.841205 -0.607142 0.000000 0.000000 0.000000 1.500905 -7.876059 0.435438 0.437696 20.918958 0.882582 0.754500 -0.292249 0.248929 0.000000 0.000000 0.000000 1.834733 -13.916342 3.257719 1.358044 31.337554 3.408912 1.887245 3.405963 0.901777 0.000000 0.000000 0.000000 
238.528000 -164.921010 1107.984010 -2.955021 6.266091 -0.876954 0.924156 -1.570881 -1.407112 0.853829 0.233614 0.324220 0.791971 -0.412815 -0.291846 -0.280053 2.191224 1.414407 0.000000 0.000000 0.000000 2.797031 0.911559 -2.450299 -2.092008 1.738868 -3.862100 0.946158 -31.402928 -2.366350 0.000000 0.000000 0.000000 1.456815 5.362652 7.228808 0.991134 6.974096 -0.186768 0.377016 -12.450943 -0.122173 0.000000 0.000000 0.000000 1.529290 -7.487097 0.490365 0.456773 21.418457 0.975984 0.780891 0.140372 0.343153 0.000000 0.000000 0.000000 1.770194 -14.024604 3.291412 1.252234 32.552733 3.613111 1.814499 4.283670 0.922168 0.000000 0.000000 0.000000 
247.487000 -167.365010 1108.682980 -2.646029 6.089373 -0.835641 0.895894 -1.518438 -1.485266 0.792206 0.216555 0.337824 0.727221 -0.377827 -0.286140 -0.321492 2.666149 1.665547 0.000000 0.000000 0.000000 2.530351 0.867565 -2.436671 -2.082585 1.633330 -3.739586 1.002328 -32.029405 -2.250294 0.000000 0.000000 0.000000 1.539198 5.331589 7.116610 0.964386 6.882192 -0.134646 0.387507 -12.056675 0.137728 0.000000 0.000000 0.000000 1.627238 -7.116982 0.548841 0.511299 22.044255 1.066701 0.853189 0.643301 0.468753 0.000000 0.000000 0.000000 1.791918 -14.854800 3.347910 1.143757 35.012091 3.889215 1.822423 5.201112 0.968830 0.000000 0.000000 0.000000 
256.511990 -170.064000 1109.428960 -2.239081 5.873567 -0.812514 0.900910 -1.417948 -1.550513 0.750358 0.191426 0.330082 0.683119 -0.325648 -0.288438 -0.378577 3.121312 1.956417 0.000000 0.000000 0.000000 2.087841 0.847911 -2.355024 -2.066024 1.553314 -3.705275 1.070997 -32.370836 -1.967369 0.000000 0.000000 0.000000 1.412622 5.293353 6.980395 0.942205 6.776176 0.092686 0.379055 -11.589319 0.208847 0.000000 0.000000 0.000000 1.776871 -6.746575 0.655279 0.599469 22.760725 1.160141 0.971300 1.243467 0.630498 0.000000 0.000000 0.000000 1.880088 -16.162823 3.451284 1.013208 38.266742 4.232400 1.905447 6.327417 1.049217 0.000000 0.000000 0.000000 
265.626010 -172.628010 1109.807010 -1.752983 5.597145 -0.802045 0.913998 -1.225404 -1.547689 0.719001 0.164236 0.316187 0.650221 -0.265897 -0.281892 -0.439365 3.525837 2.240754 0.000000 0.000000 0.000000 1.658260 0.866994 -2.303183 -2.057071 1.514483 -3.670278 1.119634 -32.494761 -1.657255 0.000000 0.000000 0.000000 1.264255 5.223060 6.835059 0.913966 6.643512 0.295253 0.364135 -11.136073 0.244604 0.000000 0.000000 0.000000 1.914835 -6.315032 0.788686 0.673024 23.516194 1.267555 1.081975 1.803714 0.779981 0.000000 0.000000 0.000000 2.058036 -17.762283 3.449966 0.868410 41.939883 4.741855 2.121675 7.685196 1.185148 0.000000 0.000000 0.000000 
274.743010 -174.848010 1109.521000 -1.155357 5.220279 -0.806708 0.905331 -0.884121 -1.416829 0.694917 0.151506 0.303651 0.624281 -0.201303 -0.251991 -0.497668 3.843747 2.488226 0.000000 0.000000 0.000000 1.358547 0.941317 -2.357848 -2.068929 1.531508 -3.570654 1.125561 -32.454584 -1.399078 0.000000 0.000000 0.000000 1.190568 5.081324 6.695329 0.873766 6.461933 0.326718 0.352956 -10.748810 0.358787 0.000000 0.000000 0.000000 1.987186 -5.778280 0.951311 0.690254 24.324530 1.394577 1.135124 2.236173 0.879998 0.000000 0.000000 0.000000 2.388098 -19.638849 3.202303 0.728030 46.020387 5.580734 2.621058 9.605201 1.447152 0.000000 0.000000 0.000000 
